<?xml version="1.0" encoding="UTF-8"?>
<svg id="Layer_1" data-name="Layer 1" xmlns="http://www.w3.org/2000/svg" width="28" height="22" viewBox="0 0 28 22">
  <defs>
    <style>
      .cls-1 {
        fill: #fff;
        stroke-width: 0px;
      }
    </style>
  </defs>
  <circle class="cls-1" cx="9" cy="6" r="6"/>
  <path class="cls-1" d="m9,13c-4.96,0-9,3.81-9,8.5,0,.28.22.5.5.5h17c.28,0,.5-.22.5-.5,0-4.69-4.04-8.5-9-8.5Z"/>
  <circle class="cls-1" cx="21" cy="7" r="4"/>
  <path class="cls-1" d="m21,12c-2.12,0-4.09.91-5.4,2.38,1.44,1.21,2.51,2.8,3.03,4.62h8.86c.28,0,.5-.22.5-.5,0-3.58-3.14-6.5-7-6.5Z"/>
</svg>